<?xml version="1.0" encoding="UTF-8" standalone="no"?>
<!-- Created with Inkscape (http://www.inkscape.org/) -->

<svg
   width="400mm"
   height="100mm"
   viewBox="0 0 400 100"
   version="1.1"
   id="svg5"
   xmlns="http://www.w3.org/2000/svg"
   xmlns:svg="http://www.w3.org/2000/svg">
  <defs
     id="defs2" />
  <g
     id="layer1"
     style="display:inline">
    <circle
       style="fill:#1b1b2a;fill-opacity:1;fill-rule:evenodd;stroke-width:0.216864;stroke-opacity:0.745098"
       id="path861"
       cx="114.82502"
       cy="50"
       r="38.147381" />
    <circle
       style="fill:#895da3;fill-opacity:1;fill-rule:evenodd;stroke-width:0.198179;stroke-opacity:0.745098"
       id="path1151"
       cx="114.82502"
       cy="50"
       r="32.891876" />
    <circle
       style="fill:#1b1b2a;fill-opacity:1;fill-rule:evenodd;stroke-width:0.268197;stroke-opacity:0.745098"
       id="path1357"
       cx="114.82502"
       cy="50"
       r="13.727566" />
    <g
       aria-label="ROSNY"
       transform="matrix(1.0404233,0,0,0.96114726,49.999998,-2.604626e-6)"
       id="text1970"
       style="font-weight:500;font-size:70.6126px;line-height:1.25;font-family:'Heading Pro';-inkscape-font-specification:'Heading Pro, Medium';fill:#1b1b2a;stroke-width:1.76532">
      <path
         d="M 117.82308,78.242302 V 25.86899 h 11.24009 q 3.13757,0 5.34421,0.724055 2.24113,0.724055 3.65476,2.31008 1.44811,1.586026 2.1032,4.137457 0.68958,2.516954 0.68958,6.171707 v 5.206301 q 0,3.620275 -1.72394,6.378579 -1.68946,2.758305 -4.48225,4.309852 1.17228,0.758533 1.99978,1.654983 0.86197,0.86197 1.44811,1.99977 0.58613,1.137801 0.93092,2.62039 0.34479,1.482589 0.55166,3.413402 l 0.8275,7.516381 q 0.17239,1.758419 0.65509,3.241008 0.51718,1.482589 1.06885,2.689347 h -5.44766 q -0.37926,-0.896449 -0.86197,-2.447996 -0.44822,-1.551546 -0.65509,-3.344444 l -0.79302,-7.516381 q -0.24135,-2.206643 -0.93092,-3.792669 -0.6551,-1.586025 -1.58603,-2.551432 -0.93093,-0.999885 -1.99977,-1.44811 -1.03436,-0.448224 -1.99977,-0.448224 h -4.86151 v 21.549256 z m 17.82554,-39.064491 q 0,-2.792784 -0.4827,-4.447767 -0.48271,-1.654983 -1.37916,-2.516953 -0.86197,-0.86197 -2.06872,-1.103322 -1.20676,-0.27583 -2.65487,-0.27583 h -6.06827 v 20.859679 h 5.96483 q 1.55155,0 2.79278,-0.55166 1.24124,-0.58614 2.06873,-1.551547 0.86197,-0.999885 1.3102,-2.31008 0.4827,-1.344674 0.51718,-2.861741 z"
         id="path826" />
      <path
         d="m 147.40589,40.694878 q 0,-2.89622 0.37927,-5.654525 0.37927,-2.792783 1.6205,-4.964948 1.24124,-2.206644 3.55132,-3.516839 2.34456,-1.344673 6.24067,-1.344673 2.62039,0 4.51672,0.620618 1.89633,0.620619 3.20653,1.723941 1.31019,1.068843 2.10321,2.551432 0.82749,1.482588 1.24123,3.206529 0.44823,1.72394 0.58614,3.620275 0.13792,1.861856 0.13792,3.723711 v 22.687057 q 0,2.89622 -0.37927,5.689004 -0.37926,2.758305 -1.6205,4.964948 -1.24124,2.172165 -3.5858,3.516839 -2.31008,1.310195 -6.20618,1.310195 -2.62039,0 -4.51673,-0.620619 -1.89633,-0.620618 -3.20653,-1.689462 -1.31019,-1.103321 -2.13768,-2.58591 -0.79302,-1.482589 -1.24124,-3.20653 -0.41375,-1.72394 -0.55166,-3.585796 -0.13792,-1.861856 -0.13792,-3.75819 z m 11.79176,-10.516037 q -2.20665,0 -3.51684,0.827492 -1.3102,0.827491 -1.99977,2.275601 -0.6551,1.413631 -0.86197,3.344445 -0.20688,1.896334 -0.20688,4.102978 v 22.618099 q 0,2.068729 0.1724,3.999542 0.17239,1.896335 0.82749,3.344445 0.6551,1.44811 1.96529,2.31008 1.3102,0.86197 3.62028,0.86197 2.20664,0 3.51683,-0.827491 1.3102,-0.827492 1.9653,-2.241123 0.68957,-1.44811 0.89645,-3.344444 0.20687,-1.930814 0.20687,-4.137458 V 40.694878 q 0,-2.068728 -0.1724,-3.965063 -0.17239,-1.930813 -0.82749,-3.378923 -0.65509,-1.44811 -1.96529,-2.310081 -1.31019,-0.86197 -3.62027,-0.86197 z"
         id="path828" />
      <path
         d="m 200.08952,65.381706 q 0,3.17205 -0.6551,5.689004 -0.6551,2.482474 -2.06873,4.206414 -1.41363,1.723941 -3.65475,2.654869 -2.20665,0.896449 -5.34422,0.896449 -3.79267,0 -6.10275,-0.999886 -2.31008,-0.999885 -3.58579,-2.792783 -1.27572,-1.827377 -1.68947,-4.34433 -0.41374,-2.516953 -0.41374,-5.551089 v -2.516953 h 5.17182 v 2.31008 q 0,2.275602 0.24135,3.965064 0.24135,1.654982 0.96541,2.792783 0.72405,1.103322 1.99977,1.654983 1.27572,0.517182 3.34444,0.517182 1.86186,0 3.1031,-0.620618 1.27571,-0.655098 2.03425,-1.75842 0.75853,-1.1378 1.06884,-2.689347 0.34479,-1.551546 0.34479,-3.378923 v -0.344788 q 0,-1.827377 -0.31031,-3.275487 -0.31031,-1.44811 -0.96541,-2.585911 -0.62062,-1.17228 -1.6205,-2.103207 -0.99989,-0.930928 -2.37904,-1.75842 l -4.99943,-3.034135 q -2.17216,-1.310195 -3.65475,-2.654868 -1.44811,-1.344674 -2.34456,-2.965178 -0.86197,-1.620504 -1.24124,-3.585796 -0.37926,-1.999771 -0.37926,-4.620161 v -0.724055 q 0,-6.137228 2.93069,-9.343757 2.9307,-3.206529 8.61971,-3.206529 3.03413,0 5.17182,0.896449 2.17216,0.896449 3.55132,2.551432 1.41363,1.654982 2.06872,4.03402 0.6551,2.344559 0.6551,5.275258 v 3.413402 h -5.17182 l -0.069,-4.275372 q -0.0345,-1.44811 -0.41374,-2.689347 -0.34479,-1.275716 -1.10333,-2.206644 -0.72405,-0.965407 -1.89633,-1.482589 -1.17228,-0.551661 -2.82726,-0.551661 -1.7929,0 -3.03414,0.655098 -1.20676,0.620618 -1.96529,1.758419 -0.75853,1.103322 -1.06884,2.585911 -0.31031,1.482588 -0.24135,3.137571 l 0.0345,1.206759 q 0.069,2.689347 1.51707,4.792554 1.44811,2.103208 3.82715,3.48236 l 4.82703,2.792784 q 2.06873,1.206758 3.48236,2.654868 1.44811,1.413631 2.34456,3.103093 0.93093,1.689461 1.37915,3.689232 0.44823,1.999771 0.51719,4.34433 z"
         id="path830" />
      <path
         d="m 206.95079,78.242302 v -52.44227 h 7.30951 L 226.63819,69.89843 V 25.800032 h 4.99943 l 0.1724,52.44227 h -6.9992 l -12.8606,-44.339749 v 44.339749 z"
         id="path832" />
      <path
         d="m 252.187,57.761889 v 20.480413 h -5.17182 V 57.761889 L 236.49914,25.86899 h 5.62005 l 7.55086,24.479955 7.72325,-24.479955 h 5.30974 z"
         id="path834" />
    </g>
  </g>
</svg>
